<svg width="13" height="13" viewBox="0 0 13 13" fill="none" xmlns="http://www.w3.org/2000/svg">
<path d="M6.5 3.44898C5.89656 3.44898 5.30668 3.62792 4.80494 3.96317C4.30321 4.29842 3.91215 4.77492 3.68122 5.33242C3.4503 5.88993 3.38988 6.50338 3.5076 7.09522C3.62533 7.68706 3.91591 8.2307 4.3426 8.6574C4.7693 9.08409 5.31294 9.37467 5.90478 9.4924C6.49662 9.61012 7.11007 9.5497 7.66757 9.31878C8.22508 9.08785 8.70158 8.69679 9.03683 8.19506C9.37208 7.69332 9.55102 7.10343 9.55102 6.5C9.55011 5.6911 9.22837 4.91559 8.65639 4.34361C8.08441 3.77163 7.3089 3.44989 6.5 3.44898ZM6.5 8.7551C6.05398 8.7551 5.61798 8.62284 5.24713 8.37505C4.87628 8.12726 4.58724 7.77506 4.41656 7.36299C4.24587 6.95092 4.20122 6.4975 4.28823 6.06005C4.37524 5.6226 4.59002 5.22078 4.9054 4.9054C5.22078 4.59002 5.6226 4.37524 6.06005 4.28823C6.4975 4.20122 6.95092 4.24587 7.36299 4.41656C7.77506 4.58724 8.12726 4.87628 8.37505 5.24713C8.62284 5.61798 8.7551 6.05398 8.7551 6.5C8.75442 7.09788 8.51661 7.67108 8.09384 8.09384C7.67108 8.51661 7.09788 8.75442 6.5 8.7551ZM9.41837 0H3.58163C2.63206 0.00108838 1.72169 0.378787 1.05024 1.05024C0.378787 1.72169 0.00108838 2.63206 0 3.58163V9.41837C0.00108838 10.3679 0.378787 11.2783 1.05024 11.9498C1.72169 12.6212 2.63206 12.9989 3.58163 13H9.41837C10.3679 12.9989 11.2783 12.6212 11.9498 11.9498C12.6212 11.2783 12.9989 10.3679 13 9.41837V3.58163C12.9989 2.63206 12.6212 1.72169 11.9498 1.05024C11.2783 0.378787 10.3679 0.00108838 9.41837 0ZM12.2041 9.41837C12.2033 10.1569 11.9095 10.865 11.3873 11.3873C10.865 11.9095 10.1569 12.2033 9.41837 12.2041H3.58163C2.84307 12.2033 2.13499 11.9095 1.61275 11.3873C1.0905 10.865 0.796743 10.1569 0.795918 9.41837V3.58163C0.796743 2.84307 1.0905 2.13499 1.61275 1.61275C2.13499 1.0905 2.84307 0.796743 3.58163 0.795918H9.41837C10.1569 0.796743 10.865 1.0905 11.3873 1.61275C11.9095 2.13499 12.2033 2.84307 12.2041 3.58163V9.41837ZM10.6122 3.05102C10.6122 3.1822 10.5733 3.31044 10.5005 3.41951C10.4276 3.52858 10.324 3.6136 10.2028 3.6638C10.0816 3.714 9.94824 3.72713 9.81958 3.70154C9.69092 3.67595 9.57274 3.61278 9.47998 3.52002C9.38722 3.42726 9.32405 3.30908 9.29846 3.18042C9.27287 3.05176 9.286 2.9184 9.3362 2.7972C9.3864 2.676 9.47141 2.57242 9.58049 2.49954C9.68956 2.42665 9.8178 2.38775 9.94898 2.38775C10.1248 2.38797 10.2934 2.45791 10.4177 2.58225C10.5421 2.70659 10.612 2.87518 10.6122 3.05102Z" fill="black"/>
</svg>
