<svg width="142" height="63" viewBox="0 0 142 63" fill="none" xmlns="http://www.w3.org/2000/svg">
<path d="M27.1689 8.15697C27.1689 10.3814 26.2297 12.2104 24.4501 13.4462C23.2143 14.2371 21.9291 14.5832 20.6932 14.7315V16.857H17.579V14.682C16.3432 14.5337 15.058 14.1877 13.8222 13.3968C12.1415 12.2598 11.1528 10.3814 11.1528 8.15697C11.1528 5.98195 12.092 4.0541 13.8222 2.81829C15.058 2.02737 16.3432 1.63192 17.579 1.48362V0.34668H20.6932V1.43419C21.9291 1.58248 23.2637 2.02737 24.4501 2.81829C26.2791 4.0541 27.1689 5.98195 27.1689 8.15697ZM17.6284 11.5184V4.79558C16.887 4.94387 16.2443 5.1416 15.75 5.53706C14.8602 6.13025 14.5142 6.97059 14.5142 8.10754C14.5142 9.29391 14.8602 10.1343 15.75 10.7274C16.1949 11.1229 16.8375 11.3701 17.6284 11.5184ZM23.9063 8.15697C23.9063 6.97059 23.5109 6.13025 22.6705 5.58649C22.1762 5.24047 21.4842 4.99331 20.7427 4.84501V11.5678C21.4842 11.4195 22.1762 11.1723 22.6705 10.7769C23.5109 10.1343 23.9063 9.29391 23.9063 8.15697Z" fill="#009FE3"/>
<path d="M31.173 14.4836C29.8383 12.9018 29.2451 10.7762 29.2451 8.6012C29.2451 6.42619 29.8383 4.3006 31.173 2.66934C32.6065 0.88978 34.8804 0 37.2531 0C39.6259 0 41.8503 0.88978 43.3333 2.66934C44.7174 4.35003 45.2117 6.37675 45.2611 8.6012C45.2117 10.8751 44.668 12.8524 43.3333 14.4836C41.8009 16.3126 39.5764 17.2024 37.2531 17.2024C34.8804 17.2024 32.6065 16.2632 31.173 14.4836ZM40.8617 12.6052C41.702 11.5177 41.9492 10.0347 41.9492 8.6012C41.9492 7.16767 41.6526 5.6847 40.8617 4.59719C40.0213 3.46025 38.6867 2.96593 37.2531 2.9165C35.8196 2.86707 34.4355 3.46025 33.6446 4.59719C32.8042 5.6847 32.5076 7.16767 32.5076 8.6012C32.5076 10.0347 32.8042 11.5177 33.6446 12.6052C34.4355 13.6927 35.8196 14.2365 37.2531 14.2365C38.6867 14.2365 40.0213 13.6927 40.8617 12.6052Z" fill="#009FE3"/>
<path d="M61.5738 0.345947V16.8563H58.4596V10.0347H51.0942V16.8563H47.98V0.345947H51.0942V7.11816H58.4596V0.345947H61.5738Z" fill="#009FE3"/>
<path d="M80.0615 13.9398V18.9325H77.145V16.8563H67.2585V18.9325H64.342V13.9398C65.479 13.9398 66.2205 12.6051 66.5171 9.98522L67.654 0.345947H79.0728V13.9398H80.0615ZM76.1563 3.26245H70.2739L69.4336 10.3313C69.2358 11.8636 69.0381 13.0995 68.3955 13.9398H76.1563V3.26245Z" fill="#009FE3"/>
<path d="M22.9672 32.4275C21.9291 33.515 20.4956 33.9599 18.8149 33.9599H14.9592V39.5952H11.845V23.0848H18.8149C20.7428 23.0848 21.8303 23.5792 22.7695 24.4689C23.9559 25.6059 24.4007 26.7923 24.4502 28.5224C24.4502 30.1042 23.857 31.5377 22.9672 32.4275ZM21.2865 28.5224C21.2865 27.9292 21.1382 27.1877 20.7428 26.6934C20.3473 26.1991 19.7541 26.0013 18.9138 26.0013H14.9592V31.0434H18.9138C19.5564 31.0434 20.2979 30.7468 20.7922 30.1536C21.1382 29.7582 21.2865 29.0661 21.2865 28.5224Z" fill="#009FE3"/>
<path d="M36.2642 36.1349H30.0852L29.0471 39.5952H25.834L30.8761 23.0848H35.5227L40.5648 39.5952H37.3517L36.2642 36.1349ZM35.3744 33.2184L33.1499 26.0013L30.9255 33.2184H35.3744Z" fill="#009FE3"/>
<path d="M44.6677 23.6284C45.8046 23.0352 47.1393 22.7386 48.3751 22.7386C49.9075 22.7386 51.6376 23.0847 52.824 24.0239C54.0104 24.8642 54.7024 26.2483 54.7024 27.7313C54.7024 28.2256 54.5541 29.0165 54.4058 29.5109C54.2081 30.0546 53.8621 30.5489 53.4666 31.0433C54.0104 31.4881 54.3564 31.9825 54.653 32.5757C54.999 33.2677 55.1473 34.1081 55.1473 34.9978C55.1473 36.4808 54.2081 38.0132 52.9229 38.8041C51.6376 39.6445 49.8581 39.9905 48.4246 39.9905C47.0405 39.9905 45.5575 39.7433 44.3711 39.1007C43.1847 38.4581 42.295 37.5683 41.6523 36.4808L43.9262 34.6518C44.3711 35.3439 44.9643 35.937 45.7058 36.3819C46.4967 36.8268 47.4359 37.074 48.3257 37.074C49.3638 37.074 50.4018 36.8763 51.1433 36.2336C51.5882 35.7887 51.7859 35.3439 51.7859 34.9484C51.7859 34.3058 51.5882 33.7126 51.1433 33.3666C50.5996 32.9217 49.7098 32.6745 48.9189 32.6745H46.4473V29.6592H48.9189C49.6109 29.6592 50.303 29.4614 50.7973 29.066C51.2422 28.7199 51.3905 28.1762 51.3905 27.7313C51.3905 27.1381 51.1433 26.6932 50.6984 26.2978C50.0558 25.754 49.1166 25.6057 48.3257 25.6057C47.337 25.6057 46.6944 25.8529 45.8541 26.2483C45.162 26.5944 44.5688 27.0392 44.124 27.4841L42.1961 25.2597C42.8881 24.6665 43.8274 24.0239 44.6677 23.6284Z" fill="#009FE3"/>
<path d="M70.2246 34.5531C70.2246 36.0361 69.8292 37.4202 68.7911 38.3594C67.8519 39.2492 66.8632 39.5952 64.886 39.5952H57.916V23.0848H64.4905C65.924 23.0848 67.0115 23.3814 68.0002 24.3206C68.9888 25.2599 69.4337 26.4462 69.4337 27.7809C69.4337 28.9673 68.9394 30.0548 68.2473 30.5985C68.099 30.6974 68.0002 30.7963 67.8519 30.8951C68.2473 31.0434 68.5934 31.2412 68.89 31.5377C69.7303 32.1804 70.2246 33.4162 70.2246 34.5531ZM61.0797 26.0013V29.511H64.4905C65.1826 29.511 65.578 29.3133 65.924 28.9673C66.2206 28.6212 66.3195 28.2258 66.3195 27.7809C66.3195 27.336 66.1712 26.8417 65.8252 26.4957C65.4791 26.1496 65.0343 26.0013 64.4905 26.0013H61.0797ZM67.1104 34.5531C67.1104 34.0094 66.9621 33.4162 66.5172 32.9713C66.0229 32.477 65.3803 32.4275 64.9354 32.4275H61.0797V36.6293H64.886C65.5286 36.6293 66.0229 36.4315 66.4678 36.0361C66.8632 35.6406 67.1104 35.1463 67.1104 34.5531Z" fill="#009FE3"/>
<path d="M86.4875 23.0848V39.5952H83.3239V28.5718L76.1562 39.5952H72.9431V23.0848H76.1068V34.1082L83.3239 23.0848H86.4875Z" fill="#009FE3"/>
<path d="M102.059 26.0013H96.8684V39.5952H93.7048V26.0013H88.5144V23.0848H102.009V26.0013H102.059Z" fill="#009FE3"/>
<path d="M117.58 23.0848V39.5952H114.417V28.5718L107.249 39.5952H104.085V23.0848H107.249V34.1082L114.417 23.0848H117.58Z" fill="#009FE3"/>
<path d="M132.707 39.5952H129.593V33.9599H126.132L123.413 39.5952H119.904L122.919 33.3667C122.425 33.1196 121.98 32.823 121.634 32.4275C120.695 31.4883 120.102 30.1042 120.151 28.5224C120.151 26.7923 120.645 25.6059 121.832 24.4689C122.771 23.5297 123.858 23.0848 125.786 23.0848H132.756V39.5952H132.707ZM129.593 31.0434V26.0013H125.638C124.798 26.0013 124.204 26.1991 123.809 26.6934C123.413 27.1877 123.265 27.9292 123.265 28.5224C123.265 29.0661 123.413 29.7582 123.809 30.1536C124.303 30.7468 125.045 31.0434 125.687 31.0434H129.593Z" fill="#009FE3"/>
<path d="M23.4615 46.3674V60.8016H20.6933V51.1624L14.4154 60.8511H11.6472V46.3674H14.4154V56.0067L20.6933 46.3674H23.4615Z" fill="black"/>
<path d="M38.39 46.3674V60.8016H35.6712V54.8698H29.1956V60.8511H26.4768V46.3674H29.1956V52.2993H35.6712V46.3674H38.39Z" fill="black"/>
<path d="M53.3187 46.3674V60.8016H50.5999V54.8698H44.1243V60.8511H41.4055V46.3674H44.1243V52.2993H50.5999V46.3674H53.3187Z" fill="black"/>
<path d="M57.4214 58.7749C56.235 57.3908 55.7407 55.5618 55.7407 53.6339C55.7407 51.7061 56.2845 49.8771 57.4214 48.4435C58.7067 46.8617 60.6345 46.0708 62.7601 46.0708C64.8857 46.0708 66.8135 46.8617 68.0988 48.4435C69.3346 49.9265 69.73 51.7061 69.7795 53.6339C69.73 55.6606 69.2851 57.3413 68.0988 58.7749C66.7641 60.3567 64.7868 61.1476 62.7601 61.1476C60.6839 61.1476 58.6572 60.3567 57.4214 58.7749ZM65.8743 57.1436C66.6158 56.2044 66.863 54.9192 66.863 53.6339C66.863 52.3487 66.6158 51.0635 65.8743 50.1242C65.1328 49.185 63.9465 48.6907 62.7107 48.6907C61.4749 48.6907 60.2391 49.185 59.547 50.1242C58.8055 51.0635 58.5584 52.3981 58.5584 53.6339C58.5584 54.9192 58.8055 56.2044 59.547 57.1436C60.2391 58.1323 61.4749 58.5771 62.7107 58.5771C63.9465 58.5771 65.1823 58.0828 65.8743 57.1436Z" fill="black"/>
<path d="M82.9284 56.4022C82.9284 57.6874 82.5824 58.9232 81.6926 59.7636C80.8523 60.5545 79.9625 60.8511 78.2818 60.8511H72.2017V46.3674H77.9852C79.2705 46.3674 80.2097 46.6146 81.0995 47.4549C81.9892 48.2953 82.3353 49.2839 82.3847 50.5197C82.3847 51.5578 81.9398 52.497 81.3466 52.9913C81.2478 53.0902 81.1489 53.1891 81.0006 53.2385C81.3466 53.3868 81.6432 53.5351 81.9398 53.7823C82.4836 54.3754 82.9284 55.4135 82.9284 56.4022ZM74.9204 48.9379V52.0521H77.8864C78.4795 52.0521 78.875 51.8544 79.1716 51.5578C79.4682 51.2612 79.5176 50.9152 79.5176 50.5197C79.5176 50.1243 79.4188 49.6794 79.0727 49.3828C78.7761 49.0862 78.3807 48.9379 77.8864 48.9379H74.9204ZM80.2097 56.4022C80.2097 55.9078 80.0614 55.4135 79.7154 55.0181C79.2705 54.5732 78.7267 54.5237 78.3312 54.5237H74.9204V58.2312H78.2818C78.875 58.2312 79.2705 58.0334 79.6659 57.6874C80.0614 57.3414 80.2097 56.9459 80.2097 56.4022Z" fill="black"/>
<path d="M93.5071 57.8357H88.0696L87.1304 60.8511H84.3127L88.7122 46.4169H92.7657L97.1651 60.8511H94.3475L93.5071 57.8357ZM92.7162 55.2652L90.7389 48.9379L88.8111 55.2652H92.7162Z" fill="black"/>
<path d="M112.934 58.4289V62.6306H110.215V60.8016H99.2905V46.3674H102.009V58.4289H108.584V46.7629H111.303V58.4289H112.934Z" fill="black"/>
<path d="M127.17 46.3674V60.8016H124.402V51.1624L118.124 60.8016H115.356V46.3674H118.124V56.0067L124.402 46.3674H127.17Z" fill="black"/>
<path d="M142 46.3672V60.8014H139.232V51.1622L132.954 60.8014H130.186V46.3672H132.954V56.0065L139.232 46.3672H142ZM139.776 41.9678C139.776 43.7473 138.342 45.1809 136.563 45.1809C134.783 45.1809 133.35 43.7473 133.35 41.9678H135.475C135.475 42.561 135.97 43.0553 136.563 43.0553C137.156 43.0553 137.65 42.561 137.65 41.9678H139.776Z" fill="black"/>
<rect y="0.000244141" width="2.50932" height="60.7813" fill="#009FE3"/>
<ellipse cx="37.4634" cy="9.08702" rx="7.17382" ry="7.49265" fill="#009FE3"/>
</svg>
