<svg width="160" height="106" viewBox="0 0 160 106" fill="none" xmlns="http://www.w3.org/2000/svg">
<path d="M30.6124 9.19024C30.6124 11.6967 29.5542 13.7575 27.549 15.15C26.1566 16.0411 24.7084 16.431 23.316 16.5981V18.9932H19.807V16.5424C18.4145 16.3753 16.9663 15.9854 15.5739 15.0943C13.6801 13.8132 12.5662 11.6967 12.5662 9.19024C12.5662 6.73951 13.6244 4.56727 15.5739 3.17481C16.9663 2.28364 18.4145 1.83805 19.807 1.67096V0.389893H23.316V1.61526C24.7084 1.78235 26.2123 2.28364 27.549 3.17481C29.6099 4.56727 30.6124 6.73951 30.6124 9.19024ZM19.8627 12.9777V5.40275C19.0272 5.56985 18.3031 5.79264 17.7461 6.23823C16.7435 6.90661 16.3537 7.85348 16.3537 9.13454C16.3537 10.4713 16.7435 11.4182 17.7461 12.0866C18.2474 12.5321 18.9715 12.8106 19.8627 12.9777ZM26.9364 9.19024C26.9364 7.85348 26.4908 6.90661 25.5439 6.29393C24.9869 5.90404 24.2071 5.62554 23.3717 5.45845V13.0334C24.2071 12.8663 24.9869 12.5878 25.5439 12.1423C26.4908 11.4182 26.9364 10.4713 26.9364 9.19024Z" fill="white"/>
<path d="M35.1239 16.3196C33.62 14.5373 32.9517 12.1423 32.9517 9.69152C32.9517 7.24079 33.62 4.84576 35.1239 3.00771C36.7392 1.00257 39.3013 0 41.9748 0C44.6483 0 47.1548 1.00257 48.8257 3.00771C50.3853 4.90146 50.9422 7.18509 50.9979 9.69152C50.9422 12.2537 50.3296 14.4816 48.8257 16.3196C47.0991 18.3805 44.5926 19.383 41.9748 19.383C39.3013 19.383 36.7392 18.3248 35.1239 16.3196ZM46.0408 14.2031C46.9877 12.9777 47.2662 11.3068 47.2662 9.69152C47.2662 8.07627 46.932 6.40532 46.0408 5.17995C45.0939 3.89889 43.5901 3.3419 41.9748 3.28621C40.3595 3.23051 38.8 3.89889 37.9088 5.17995C36.9619 6.40532 36.6278 8.07627 36.6278 9.69152C36.6278 11.3068 36.9619 12.9777 37.9088 14.2031C38.8 15.4285 40.3595 16.0411 41.9748 16.0411C43.5901 16.0411 45.0939 15.4285 46.0408 14.2031Z" fill="white"/>
<path d="M69.3786 0.389893V18.9932H65.8696V11.3068H57.5705V18.9932H54.0615V0.389893H57.5705V8.02058H65.8696V0.389893H69.3786Z" fill="white"/>
<path d="M90.2099 15.707V21.3325H86.9237V18.9932H75.784V21.3325H72.4978V15.707C73.7789 15.707 74.6143 14.2031 74.9485 11.2511L76.2296 0.389893H89.0959V15.707H90.2099ZM85.8097 3.6761H79.1816L78.2347 11.641C78.0119 13.3676 77.7892 14.7601 77.0651 15.707H85.8097V3.6761Z" fill="white"/>
<path d="M25.8781 36.5382C24.7084 37.7636 23.0932 38.2649 21.1994 38.2649H16.8549V44.6145H13.3459V26.0112H21.1994C23.3717 26.0112 24.597 26.5682 25.6553 27.5708C26.9921 28.8518 27.4933 30.1886 27.549 32.1381C27.549 33.9204 26.8807 35.5357 25.8781 36.5382ZM23.9843 32.1381C23.9843 31.4697 23.8173 30.6342 23.3717 30.0772C22.9261 29.5202 22.2577 29.2974 21.3108 29.2974H16.8549V34.9787H21.3108C22.0349 34.9787 22.8704 34.6445 23.4274 33.9761C23.8173 33.5305 23.9843 32.7507 23.9843 32.1381Z" fill="white"/>
<path d="M40.861 40.7156H33.8987L32.729 44.6145H29.1086L34.7899 26.0112H40.0255L45.7068 44.6145H42.0864L40.861 40.7156ZM39.8584 37.4294L37.352 29.2974L34.8456 37.4294H39.8584Z" fill="white"/>
<path d="M50.3297 26.6238C51.6108 25.9554 53.1147 25.6212 54.5071 25.6212C56.2338 25.6212 58.1832 26.0111 59.52 27.0694C60.8567 28.0162 61.6365 29.5758 61.6365 31.2468C61.6365 31.8037 61.4694 32.6949 61.3023 33.2519C61.0795 33.8646 60.6896 34.4216 60.244 34.9785C60.8567 35.4798 61.2466 36.0368 61.5808 36.7052C61.9707 37.485 62.1378 38.4319 62.1378 39.4344C62.1378 41.1054 61.0795 42.832 59.6314 43.7232C58.1832 44.6701 56.1781 45.06 54.5628 45.06C53.0033 45.06 51.3323 44.7815 49.9955 44.0574C48.6588 43.3333 47.6562 42.3307 46.9321 41.1054L49.4943 39.0445C49.9955 39.8243 50.6639 40.4927 51.4994 40.994C52.3906 41.4953 53.4488 41.7738 54.4514 41.7738C55.6211 41.7738 56.7907 41.551 57.6262 40.8269C58.1275 40.3256 58.3503 39.8243 58.3503 39.3787C58.3503 38.6546 58.1275 37.9863 57.6262 37.5964C57.0135 37.0951 56.011 36.8166 55.1198 36.8166H52.3349V33.419H55.1198C55.8996 33.419 56.6793 33.1962 57.2363 32.7506C57.7376 32.3607 57.9047 31.748 57.9047 31.2468C57.9047 30.5784 57.6262 30.0771 57.1249 29.6315C56.4009 29.0188 55.3426 28.8517 54.4514 28.8517C53.3374 28.8517 52.6134 29.1302 51.6665 29.5758C50.8867 29.9657 50.2183 30.467 49.717 30.9683L47.5448 28.4618C48.3246 27.7935 49.3829 27.0694 50.3297 26.6238Z" fill="white"/>
<path d="M79.1257 38.9333C79.1257 40.6042 78.6802 42.1638 77.5105 43.222C76.4522 44.2246 75.3383 44.6145 73.1103 44.6145H65.2568V26.0112H72.6647C74.28 26.0112 75.5053 26.3454 76.6193 27.4037C77.7333 28.462 78.2346 29.7987 78.2346 31.3026C78.2346 32.6393 77.6776 33.8647 76.8978 34.4774C76.7307 34.5888 76.6193 34.7002 76.4522 34.8116C76.8978 34.9787 77.2877 35.2015 77.6219 35.5357C78.5688 36.2597 79.1257 37.6522 79.1257 38.9333ZM68.8215 29.2974V33.252H72.6647C73.4445 33.252 73.8901 33.0292 74.28 32.6393C74.6142 32.2495 74.7256 31.8039 74.7256 31.3026C74.7256 30.8013 74.5585 30.2443 74.1686 29.8544C73.7787 29.4645 73.2774 29.2974 72.6647 29.2974H68.8215ZM75.6167 38.9333C75.6167 38.3206 75.4496 37.6522 74.9484 37.1509C74.3914 36.5939 73.6673 36.5382 73.166 36.5382H68.8215V41.2726H73.1103C73.8344 41.2726 74.3914 41.0498 74.8927 40.6042C75.3383 40.1586 75.6167 39.6016 75.6167 38.9333Z" fill="white"/>
<path d="M97.4506 26.0112V44.6145H93.8859V32.1938L85.8096 44.6145H82.1892V26.0112H85.7539V38.432L93.8859 26.0112H97.4506Z" fill="white"/>
<path d="M114.995 29.2974H109.147V44.6145H105.582V29.2974H99.7341V26.0112H114.94V29.2974H114.995Z" fill="white"/>
<path d="M132.485 26.0112V44.6145H128.92V32.1938L120.844 44.6145H117.279V26.0112H120.844V38.432L128.92 26.0112H132.485Z" fill="white"/>
<path d="M149.528 44.6145H146.019V38.2649H142.121L139.057 44.6145H135.103L138.5 37.5965C137.943 37.318 137.442 36.9838 137.052 36.5382C135.994 35.48 135.325 33.9204 135.381 32.1381C135.381 30.1886 135.938 28.8518 137.275 27.5708C138.333 26.5125 139.558 26.0112 141.731 26.0112H149.584V44.6145H149.528ZM146.019 34.9787V29.2974H141.564C140.617 29.2974 139.948 29.5202 139.503 30.0772C139.057 30.6342 138.89 31.4697 138.89 32.1381C138.89 32.7507 139.057 33.5305 139.503 33.9761C140.06 34.6445 140.895 34.9787 141.619 34.9787H146.019Z" fill="white"/>
<path d="M26.435 52.2451V68.5091H23.3159V57.6479L16.2422 68.5648H13.123V52.2451H16.2422V63.1063L23.3159 52.2451H26.435Z" fill="black"/>
<path d="M43.2558 52.2451V68.5091H40.1924V61.8252H32.8959V68.5648H29.8325V52.2451H32.8959V58.9289H40.1924V52.2451H43.2558Z" fill="black"/>
<path d="M60.0771 52.2451V68.5091H57.0137V61.8252H49.7172V68.5648H46.6538V52.2451H49.7172V58.9289H57.0137V52.2451H60.0771Z" fill="black"/>
<path d="M64.6999 66.2255C63.3631 64.6659 62.8062 62.6051 62.8062 60.4329C62.8062 58.2606 63.4188 56.1998 64.6999 54.5845C66.1481 52.8022 68.3203 51.911 70.7153 51.911C73.1104 51.911 75.2826 52.8022 76.7308 54.5845C78.1232 56.2555 78.5688 58.2606 78.6245 60.4329C78.5688 62.7165 78.0675 64.6103 76.7308 66.2255C75.2269 68.0079 72.999 68.899 70.7153 68.899C68.376 68.899 66.0924 68.0079 64.6999 66.2255ZM74.2243 64.3875C75.0598 63.3292 75.3383 61.881 75.3383 60.4329C75.3383 58.9847 75.0598 57.5366 74.2243 56.4783C73.3889 55.42 72.0521 54.863 70.6596 54.863C69.2672 54.863 67.8747 55.42 67.0949 56.4783C66.2595 57.5366 65.981 59.0404 65.981 60.4329C65.981 61.881 66.2595 63.3292 67.0949 64.3875C67.8747 65.5014 69.2672 66.0027 70.6596 66.0027C72.0521 66.0027 73.4445 65.4457 74.2243 64.3875Z" fill="black"/>
<path d="M93.4403 63.5519C93.4403 65.0001 93.0504 66.3925 92.0479 67.3394C91.101 68.2306 90.0984 68.5648 88.2047 68.5648H81.3538V52.2451H87.8705C89.3186 52.2451 90.3769 52.5236 91.3795 53.4705C92.382 54.4174 92.7719 55.5313 92.8276 56.9238C92.8276 58.0934 92.3263 59.1517 91.658 59.7087C91.5466 59.8201 91.4352 59.9315 91.2681 59.9872C91.658 60.1543 91.9922 60.3214 92.3263 60.5999C92.939 61.2683 93.4403 62.4379 93.4403 63.5519ZM84.4172 55.1414V58.6504H87.7591C88.4275 58.6504 88.873 58.4276 89.2072 58.0935C89.5414 57.7593 89.5971 57.3694 89.5971 56.9238C89.5971 56.4782 89.4857 55.9769 89.0958 55.6427C88.7616 55.3085 88.3161 55.1414 87.7591 55.1414H84.4172ZM90.3769 63.5519C90.3769 62.9949 90.2098 62.4379 89.8199 61.9923C89.3186 61.4911 88.7059 61.4354 88.2604 61.4354H84.4172V65.6127H88.2047C88.873 65.6127 89.3186 65.3899 89.7642 65.0001C90.2098 64.6102 90.3769 64.1646 90.3769 63.5519Z" fill="black"/>
<path d="M105.36 65.1671H99.2328L98.1746 68.5647H94.9998L99.9569 52.3008H104.524L109.481 68.5647H106.307L105.36 65.1671ZM104.468 62.2708L102.241 55.1414L100.068 62.2708H104.468Z" fill="black"/>
<path d="M127.249 65.8355V70.5699H124.186V68.5091H111.876V52.2451H114.94V65.8355H122.348V52.6907H125.411V65.8355H127.249Z" fill="black"/>
<path d="M143.29 52.2451V68.5091H140.171V57.6479L133.097 68.5091H129.978V52.2451H133.097V63.1063L140.171 52.2451H143.29Z" fill="black"/>
<path d="M160 52.2449V68.5088H156.881V57.6476L149.807 68.5088H146.688V52.2449H149.807V63.1061L156.881 52.2449H160ZM157.493 47.2877C157.493 49.2929 155.878 50.9081 153.873 50.9081C151.868 50.9081 150.253 49.2929 150.253 47.2877H152.648C152.648 47.9561 153.205 48.5131 153.873 48.5131C154.541 48.5131 155.098 47.9561 155.098 47.2877H157.493Z" fill="black"/>
<path d="M159.944 80.1411H60.7454V94.8455H159.944V80.1411Z" fill="black"/>
<path d="M92.9391 94.0659H60.7454V105.261H92.9391V94.0659Z" fill="black"/>
<path d="M66.9838 86.8248H65.4242V90.111H64.366V82.5917H65.4242V85.8222H66.9838L69.3231 82.5917H70.4928L67.8193 86.2121L70.6042 90.0553H69.3788L66.9838 86.8248Z" fill="white"/>
<path d="M76.1741 84.7082C76.6197 84.931 76.9539 85.2652 77.1767 85.7108C77.3995 86.1564 77.5666 86.6577 77.5666 87.2146C77.5666 87.7716 77.4552 88.2729 77.1767 88.7185C76.9539 89.1641 76.564 89.4983 76.1741 89.7211C75.7285 89.9439 75.2273 90.111 74.6703 90.111C74.2804 90.111 73.8905 90.0553 73.5563 89.8882C73.2221 89.7211 72.9436 89.4983 72.7208 89.2198V92.1718H71.7183V84.4297H72.7208V85.3209C72.9436 84.9867 73.2221 84.7639 73.612 84.5968C73.9462 84.4297 74.3361 84.374 74.7817 84.374C75.2273 84.374 75.7285 84.4854 76.1741 84.7082ZM75.5615 88.997C75.8399 88.8299 76.0627 88.6071 76.2298 88.2729C76.3969 87.9944 76.5083 87.6045 76.5083 87.2146C76.5083 86.8247 76.3969 86.4906 76.2298 86.1564C76.0627 85.8779 75.8399 85.5994 75.5615 85.4323C75.283 85.2652 74.9488 85.2095 74.5589 85.2095C74.2247 85.2095 73.8905 85.3209 73.612 85.488C73.3335 85.6551 73.1107 85.8779 72.9436 86.2121C72.7765 86.4906 72.6651 86.8805 72.6651 87.2703C72.6651 87.6602 72.7208 87.9944 72.8879 88.3286C73.055 88.6071 73.2778 88.8856 73.5563 89.0527C73.8348 89.2198 74.169 89.3312 74.5589 89.3312C74.9488 89.2755 75.283 89.1641 75.5615 88.997Z" fill="white"/>
<path d="M82.802 84.931C83.2475 85.3209 83.4146 85.8779 83.4146 86.6577V90.111H82.4121V89.3312C82.245 89.6097 82.0222 89.7768 81.688 89.9439C81.3538 90.111 81.0196 90.1667 80.574 90.1667C79.9613 90.1667 79.4044 89.9996 79.0702 89.7211C78.6803 89.3869 78.5132 88.997 78.5132 88.4957C78.5132 87.9944 78.6803 87.6045 79.0702 87.2703C79.4601 86.9918 80.017 86.8248 80.7968 86.8248H82.4121V86.602C82.4121 86.1564 82.3007 85.8222 82.0222 85.5994C81.7437 85.3766 81.4095 85.2652 80.9082 85.2652C80.574 85.2652 80.2398 85.3209 79.9056 85.4323C79.5715 85.5437 79.293 85.7108 79.0702 85.8779L78.6246 85.0981C78.9031 84.8753 79.293 84.7082 79.6828 84.5411C80.0727 84.4297 80.5183 84.374 80.9639 84.374C81.7994 84.374 82.4121 84.5411 82.802 84.931ZM81.7994 89.1084C82.0779 88.9413 82.3007 88.6628 82.4121 88.3843V87.6045H80.8525C79.9613 87.6045 79.5715 87.883 79.5715 88.4957C79.5715 88.7742 79.6829 88.997 79.9056 89.1641C80.1284 89.3312 80.4069 89.3869 80.8525 89.3869C81.1867 89.3869 81.5209 89.2755 81.7994 89.1084Z" fill="white"/>
<path d="M86.2553 89.7767C85.8097 89.5539 85.4198 89.164 85.197 88.7184C84.9185 88.2728 84.8071 87.7715 84.8071 87.2146C84.8071 86.6576 84.9185 86.1563 85.197 85.7107C85.4755 85.2651 85.8097 84.9309 86.2553 84.7081C86.7009 84.4853 87.2022 84.3182 87.8148 84.3182C88.3161 84.3182 88.7617 84.4296 89.2073 84.6524C89.5972 84.8752 89.9314 85.1537 90.1542 85.5436L89.3744 86.0449C89.2073 85.7664 88.9845 85.5436 88.706 85.4322C88.4275 85.3208 88.149 85.2094 87.8148 85.2094C87.425 85.2094 87.0908 85.2651 86.8123 85.4322C86.5338 85.5993 86.311 85.8221 86.0882 86.1563C85.9211 86.4348 85.8097 86.8247 85.8097 87.2146C85.8097 87.6044 85.9211 87.9386 86.0882 88.2728C86.2553 88.5513 86.4781 88.8298 86.8123 88.9969C87.1465 89.164 87.425 89.2197 87.8148 89.2197C88.149 89.2197 88.4275 89.164 88.706 88.9969C88.9845 88.8855 89.2073 88.6627 89.3744 88.3842L90.1542 88.8855C89.9314 89.2754 89.5972 89.5539 89.2073 89.7767C88.8174 89.9995 88.3718 90.1109 87.8148 90.1109C87.2022 90.1666 86.7009 90.0552 86.2553 89.7767Z" fill="white"/>
<path d="M91.4355 84.4297H92.4381V86.8247H95.6686V84.4297H96.6712V90.1109H95.6686V87.7159H92.4381V90.1109H91.4355V84.4297Z" fill="white"/>
<path d="M99.623 89.7767C99.1774 89.5539 98.8432 89.164 98.5647 88.7184C98.2862 88.2728 98.1748 87.7715 98.1748 87.2146C98.1748 86.6576 98.2862 86.1563 98.5647 85.7107C98.8432 85.2651 99.1774 84.9309 99.623 84.7081C100.069 84.4853 100.57 84.3182 101.127 84.3182C101.684 84.3182 102.185 84.4296 102.631 84.7081C103.076 84.9309 103.41 85.3208 103.689 85.7107C103.967 86.1563 104.079 86.6576 104.079 87.2146C104.079 87.7715 103.967 88.2728 103.689 88.7184C103.41 89.164 103.076 89.4982 102.631 89.7767C102.185 89.9995 101.684 90.1666 101.127 90.1666C100.57 90.1666 100.069 90.0552 99.623 89.7767ZM102.129 88.9969C102.408 88.8298 102.631 88.607 102.798 88.2728C102.965 87.9386 103.021 87.6044 103.021 87.2146C103.021 86.8247 102.965 86.4905 102.798 86.1563C102.631 85.8221 102.408 85.5993 102.129 85.4322C101.851 85.2651 101.517 85.2094 101.127 85.2094C100.737 85.2094 100.458 85.2651 100.124 85.4322C99.8458 85.5993 99.623 85.8221 99.4559 86.1563C99.2888 86.4348 99.1774 86.8247 99.1774 87.2146C99.1774 87.6044 99.2888 87.9386 99.4559 88.2728C99.623 88.5513 99.8458 88.8298 100.124 88.9969C100.403 89.164 100.737 89.2754 101.127 89.2754C101.517 89.2754 101.851 89.164 102.129 88.9969Z" fill="white"/>
<path d="M111.32 89.2198V91.4477H110.373V90.1109H105.583V91.4477H104.58V89.2198H104.859C105.248 89.2198 105.471 88.9413 105.583 88.44C105.694 87.9387 105.805 87.2703 105.861 86.3234L105.973 84.4297H110.373V89.2198H111.32ZM106.752 88.1615C106.641 88.6071 106.474 88.9413 106.251 89.1641H109.426V85.2652H106.975L106.919 86.3791C106.864 87.1032 106.808 87.7159 106.752 88.1615Z" fill="white"/>
<path d="M116.5 84.931C116.945 85.3209 117.112 85.8779 117.112 86.6577V90.111H116.165V89.3312C115.998 89.6097 115.776 89.7768 115.441 89.9439C115.107 90.111 114.773 90.1667 114.327 90.1667C113.715 90.1667 113.158 89.9996 112.824 89.7211C112.434 89.3869 112.267 88.997 112.267 88.4957C112.267 87.9944 112.434 87.6045 112.824 87.2703C113.213 86.9918 113.77 86.8248 114.55 86.8248H116.165V86.602C116.165 86.1564 116.054 85.8222 115.776 85.5994C115.497 85.3766 115.163 85.2652 114.662 85.2652C114.327 85.2652 113.993 85.3209 113.659 85.4323C113.325 85.5437 113.046 85.7108 112.824 85.8779L112.378 85.0981C112.656 84.8753 113.046 84.7082 113.436 84.5411C113.826 84.4297 114.272 84.374 114.717 84.374C115.441 84.374 116.054 84.5411 116.5 84.931ZM115.441 89.1084C115.72 88.9413 115.943 88.6628 116.054 88.3843V87.6045H114.495C113.603 87.6045 113.213 87.883 113.213 88.4957C113.213 88.7742 113.325 88.997 113.548 89.1641C113.77 89.3312 114.049 89.3869 114.495 89.3869C114.829 89.3869 115.163 89.2755 115.441 89.1084Z" fill="white"/>
<path d="M123.462 84.7082C123.908 84.931 124.242 85.2652 124.465 85.7108C124.687 86.1564 124.854 86.6577 124.854 87.2146C124.854 87.7716 124.743 88.2729 124.465 88.7185C124.242 89.1641 123.852 89.4983 123.462 89.7211C123.016 89.9439 122.515 90.111 121.958 90.111C121.568 90.111 121.178 90.0553 120.844 89.8882C120.51 89.7211 120.231 89.4983 120.009 89.2198V92.1718H118.95V84.4297H119.953V85.3209C120.176 84.9867 120.454 84.7639 120.844 84.5968C121.178 84.4297 121.568 84.374 122.014 84.374C122.515 84.374 123.016 84.4854 123.462 84.7082ZM122.849 88.997C123.128 88.8299 123.351 88.6071 123.518 88.2729C123.685 87.9944 123.796 87.6045 123.796 87.2146C123.796 86.8247 123.685 86.4906 123.518 86.1564C123.351 85.8779 123.128 85.5994 122.849 85.4323C122.571 85.2652 122.237 85.2095 121.847 85.2095C121.513 85.2095 121.178 85.3209 120.9 85.488C120.621 85.6551 120.399 85.8779 120.232 86.2121C120.064 86.4906 119.953 86.8805 119.953 87.2703C119.953 87.6602 120.009 87.9944 120.176 88.3286C120.343 88.6071 120.566 88.8856 120.844 89.0527C121.123 89.2198 121.457 89.3312 121.847 89.3312C122.237 89.2755 122.571 89.1641 122.849 88.997Z" fill="white"/>
<path d="M127.249 89.7767C126.804 89.5539 126.414 89.164 126.191 88.7184C125.913 88.2728 125.801 87.7715 125.801 87.2146C125.801 86.6576 125.913 86.1563 126.191 85.7107C126.47 85.2651 126.804 84.9309 127.249 84.7081C127.695 84.4853 128.196 84.3182 128.809 84.3182C129.31 84.3182 129.756 84.4296 130.201 84.6524C130.591 84.8752 130.926 85.1537 131.148 85.5436L130.369 86.0449C130.201 85.7664 129.979 85.5436 129.7 85.4322C129.422 85.3208 129.143 85.2094 128.809 85.2094C128.419 85.2094 128.085 85.2651 127.806 85.4322C127.528 85.5993 127.305 85.8221 127.082 86.1563C126.915 86.4348 126.804 86.8247 126.804 87.2146C126.804 87.6044 126.915 87.9386 127.082 88.2728C127.249 88.5513 127.472 88.8298 127.806 88.9969C128.141 89.164 128.419 89.2197 128.809 89.2197C129.143 89.2197 129.422 89.164 129.7 88.9969C129.979 88.8855 130.201 88.6627 130.369 88.3842L131.148 88.8855C130.926 89.2754 130.591 89.5539 130.201 89.7767C129.812 89.9995 129.366 90.1109 128.809 90.1109C128.252 90.1666 127.695 90.0552 127.249 89.7767Z" fill="white"/>
<path d="M134.657 87.7159H133.488V90.1109H132.485V84.4297H133.488V86.8247H134.713L136.551 84.4297H137.665L135.493 87.1589L137.776 90.1109H136.551L134.657 87.7159Z" fill="white"/>
<path d="M139.559 89.7767C139.113 89.5539 138.779 89.164 138.5 88.7184C138.222 88.2728 138.111 87.7715 138.111 87.2146C138.111 86.6576 138.222 86.1563 138.5 85.7107C138.779 85.2651 139.113 84.9309 139.559 84.7081C140.004 84.4853 140.506 84.3182 141.063 84.3182C141.62 84.3182 142.121 84.4296 142.566 84.7081C143.012 84.9309 143.346 85.3208 143.625 85.7107C143.903 86.1563 144.015 86.6576 144.015 87.2146C144.015 87.7715 143.903 88.2728 143.625 88.7184C143.346 89.164 143.012 89.4982 142.566 89.7767C142.121 89.9995 141.62 90.1666 141.063 90.1666C140.561 90.1666 140.004 90.0552 139.559 89.7767ZM142.065 88.9969C142.344 88.8298 142.566 88.607 142.734 88.2728C142.901 87.9386 142.956 87.6044 142.956 87.2146C142.956 86.8247 142.901 86.4905 142.734 86.1563C142.566 85.8221 142.344 85.5993 142.065 85.4322C141.787 85.2651 141.453 85.2094 141.063 85.2094C140.673 85.2094 140.394 85.2651 140.06 85.4322C139.782 85.5993 139.559 85.8221 139.392 86.1563C139.225 86.4348 139.113 86.8247 139.113 87.2146C139.113 87.6044 139.225 87.9386 139.392 88.2728C139.559 88.5513 139.782 88.8298 140.06 88.9969C140.339 89.164 140.673 89.2754 141.063 89.2754C141.453 89.2754 141.787 89.164 142.065 88.9969Z" fill="white"/>
<path d="M149.696 85.3209H146.521V90.1109H145.519V84.4297H149.696V85.3209Z" fill="white"/>
<path d="M151.423 89.7767C150.977 89.5539 150.643 89.164 150.364 88.7184C150.086 88.2728 149.974 87.7715 149.974 87.2146C149.974 86.6576 150.086 86.1563 150.364 85.7107C150.643 85.2651 150.977 84.9309 151.423 84.7081C151.868 84.4853 152.369 84.3182 152.926 84.3182C153.483 84.3182 153.985 84.4296 154.43 84.7081C154.876 84.9309 155.21 85.3208 155.489 85.7107C155.767 86.1563 155.878 86.6576 155.878 87.2146C155.878 87.7715 155.767 88.2728 155.489 88.7184C155.21 89.164 154.876 89.4982 154.43 89.7767C153.985 89.9995 153.483 90.1666 152.926 90.1666C152.369 90.1666 151.868 90.0552 151.423 89.7767ZM153.929 88.9969C154.207 88.8298 154.43 88.607 154.597 88.2728C154.764 87.9386 154.82 87.6044 154.82 87.2146C154.82 86.8247 154.764 86.4905 154.597 86.1563C154.43 85.8221 154.207 85.5993 153.929 85.4322C153.65 85.2651 153.316 85.2094 152.926 85.2094C152.536 85.2094 152.258 85.2651 151.924 85.4322C151.645 85.5993 151.423 85.8221 151.255 86.1563C151.088 86.4348 150.977 86.8247 150.977 87.2146C150.977 87.6044 151.088 87.9386 151.255 88.2728C151.423 88.5513 151.645 88.8298 151.924 88.9969C152.202 89.164 152.536 89.2754 152.926 89.2754C153.316 89.2754 153.65 89.164 153.929 88.9969Z" fill="white"/>
<path d="M66.371 98.8555H65.2013V101.251H64.1987V95.5693H65.2013V97.9644H66.4267L68.2647 95.5693H69.3787L67.2064 98.2986L69.4901 101.251H68.2647L66.371 98.8555Z" fill="white"/>
<path d="M75.0599 95.848C75.5055 96.0708 75.8397 96.405 76.0625 96.8506C76.2852 97.2961 76.4523 97.7974 76.4523 98.3544C76.4523 98.9114 76.3409 99.4127 76.0625 99.8583C75.8397 100.304 75.4498 100.638 75.0599 100.861C74.6143 101.084 74.113 101.251 73.556 101.251C73.1661 101.251 72.7762 101.195 72.4421 101.028C72.1079 100.861 71.8294 100.638 71.6066 100.36V103.312H70.604V95.5695H71.6066V96.4607C71.8294 96.1265 72.1079 95.9037 72.4978 95.7366C72.8319 95.5695 73.2218 95.5138 73.6674 95.5138C74.113 95.5138 74.6143 95.6252 75.0599 95.848ZM74.5029 100.137C74.7814 99.9697 75.0042 99.7469 75.1713 99.4127C75.3384 99.1342 75.4498 98.7443 75.4498 98.3544C75.4498 97.9645 75.3384 97.6303 75.1713 97.2961C75.0042 97.0176 74.7814 96.7392 74.5029 96.5721C74.2244 96.405 73.8902 96.3493 73.5003 96.3493C73.1661 96.3493 72.8319 96.4607 72.5534 96.6278C72.275 96.7949 72.0522 97.0176 71.8851 97.3518C71.718 97.6303 71.6066 98.0202 71.6066 98.4101C71.6066 98.8 71.6623 99.1342 71.8294 99.4684C71.9965 99.7469 72.2193 100.025 72.4978 100.192C72.7762 100.36 73.1104 100.471 73.5003 100.471C73.8902 100.415 74.1687 100.304 74.5029 100.137Z" fill="white"/>
<path d="M81.7439 96.0708C82.1894 96.4607 82.3565 97.0176 82.3565 97.7974V101.251H81.354V100.471C81.1869 100.749 80.9641 100.917 80.6299 101.084C80.2957 101.251 79.9615 101.306 79.5159 101.306C78.9032 101.306 78.3463 101.139 78.0121 100.861C77.6222 100.527 77.4551 100.137 77.4551 99.6355C77.4551 99.1342 77.6222 98.7443 78.0121 98.4101C78.402 98.1316 78.9589 97.9645 79.7387 97.9645H81.354V97.7417C81.354 97.2961 81.2426 96.962 80.9641 96.7392C80.6856 96.5164 80.3514 96.405 79.8501 96.405C79.5159 96.405 79.1817 96.4607 78.8475 96.5721C78.5133 96.6835 78.2349 96.8506 78.0121 97.0176L77.5665 96.2379C77.845 96.0151 78.2349 95.848 78.6247 95.6809C79.0146 95.5695 79.4602 95.5138 79.9058 95.5138C80.6856 95.5138 81.2983 95.6809 81.7439 96.0708ZM80.6856 100.248C80.9641 100.081 81.1869 99.8026 81.2983 99.5241V98.7443H79.7387C78.8475 98.7443 78.4577 99.0228 78.4577 99.6355C78.4577 99.914 78.569 100.137 78.7918 100.304C79.0146 100.471 79.2931 100.527 79.7387 100.527C80.0729 100.527 80.4071 100.415 80.6856 100.248Z" fill="white"/>
<path d="M88.7619 95.5693V101.251H87.815V99.4682H86.1441H86.0884L84.863 101.251H83.749L85.1415 99.3011C84.6959 99.1897 84.3617 98.9669 84.1389 98.6885C83.9161 98.41 83.8047 98.0201 83.8047 97.5745C83.8047 96.9061 84.0275 96.4048 84.4731 96.0706C84.9187 95.7364 85.5314 95.5693 86.3111 95.5693H88.7619ZM85.1972 98.41C85.42 98.5771 85.8099 98.6885 86.2555 98.6885H87.815V96.4605H86.2555C85.2529 96.4605 84.7516 96.8504 84.7516 97.5745C84.8073 97.9644 84.9744 98.2429 85.1972 98.41Z" fill="white"/>
<rect y="0.000244141" width="2.82741" height="68.4862" fill="white"/>
<ellipse cx="42.2121" cy="10.239" rx="8.0832" ry="8.44245" fill="white"/>
</svg>
