<svg width="48" height="48" viewBox="0 0 48 48" fill="none" xmlns="http://www.w3.org/2000/svg">
<path d="M18.3373 27.5944C18.8003 27.8026 19.3445 27.5962 19.5529 27.1332L20.0334 26.0649H23.0971L23.5776 27.1332C23.7308 27.4738 24.0658 27.6756 24.4165 27.6756C24.5426 27.6756 24.6707 27.6495 24.7932 27.5944C25.2561 27.3861 25.4627 26.842 25.2545 26.3789L22.4037 20.0415C22.2553 19.7116 21.9271 19.4994 21.5653 19.4994C21.2036 19.4994 20.8754 19.7117 20.7269 20.0415L17.8761 26.3789C17.6677 26.842 17.8744 27.3862 18.3373 27.5944ZM21.5652 22.6596L22.27 24.2263H20.8604L21.5652 22.6596Z" fill="white"/>
<path d="M28.7386 26.7561V20.4187C28.7386 19.911 28.327 19.4994 27.8193 19.4994C27.3117 19.4994 26.9 19.911 26.9 20.4187V26.7561C26.9 27.2638 27.3117 27.6754 27.8193 27.6754C28.327 27.6754 28.7386 27.2638 28.7386 26.7561Z" fill="white"/>
<path d="M14.1308 33.8563H32.937C33.4447 33.8563 33.8563 33.4448 33.8563 32.937V14.1308C33.8563 13.6231 33.4447 13.2115 32.937 13.2115H27.6603C27.1526 13.2115 26.741 13.6231 26.741 14.1308C26.741 14.6386 27.1526 15.0501 27.6603 15.0501H32.0177V32.0177H15.0501V15.0501H19.405C19.9127 15.0501 20.3243 14.6386 20.3243 14.1308C20.3243 13.6231 19.9127 13.2115 19.405 13.2115H14.1308C13.6232 13.2115 13.2115 13.6231 13.2115 14.1308V32.937C13.2115 33.4448 13.6231 33.8563 14.1308 33.8563Z" fill="white"/>
<path d="M46.1486 20.035C46.6562 20.035 47.0679 19.6234 47.0679 19.1157C47.0679 18.608 46.6562 18.1964 46.1486 18.1964H42.3461V15.6182H46.1486C46.6562 15.6182 47.0679 15.2066 47.0679 14.6989C47.0679 14.1911 46.6562 13.7796 46.1486 13.7796H42.3461V12.1817C42.3461 11.6739 41.9344 11.2624 41.4268 11.2624H37.9823L35.8029 9.083V5.6384C35.8029 5.13067 35.3913 4.71911 34.8836 4.71911H33.2856V0.919294C33.2856 0.411568 32.874 0 32.3663 0C31.8587 0 31.447 0.411568 31.447 0.919294V4.71911H28.8688V0.919294C28.8688 0.411568 28.4571 0 27.9495 0C27.4419 0 27.0302 0.411568 27.0302 0.919294V4.71911H24.4519V0.919294C24.4519 0.411568 24.0402 0 23.5326 0C23.0249 0 22.6133 0.411568 22.6133 0.919294V4.71911H20.035V0.919294C20.035 0.411568 19.6234 0 19.1157 0C18.6081 0 18.1964 0.411568 18.1964 0.919294V4.71911H15.6182V0.919294C15.6182 0.411568 15.2065 0 14.6989 0C14.1912 0 13.7796 0.411568 13.7796 0.919294V4.71911H12.1816C11.6739 4.71911 11.2623 5.13067 11.2623 5.6384V9.083L9.08291 11.2624H5.63831C5.13067 11.2624 4.71901 11.6739 4.71901 12.1817V13.7796H0.919294C0.41166 13.7796 0 14.1911 0 14.6989C0 15.2066 0.41166 15.6182 0.919294 15.6182H4.71911V18.1964H0.919294C0.41166 18.1964 0 18.608 0 19.1157C0 19.6234 0.41166 20.035 0.919294 20.035H4.71911V22.6133H0.919294C0.41166 22.6133 0 23.0248 0 23.5326C0 24.0403 0.41166 24.4519 0.919294 24.4519H4.71911V27.0301H0.919294C0.41166 27.0301 0 27.4417 0 27.9494C0 28.4571 0.41166 28.8687 0.919294 28.8687H4.71911V31.447H0.919294C0.41166 31.447 0 31.8585 0 32.3662C0 32.874 0.41166 33.2855 0.919294 33.2855H4.71911V34.8835C4.71911 35.3912 5.13077 35.8028 5.6384 35.8028H9.083L11.2624 37.9821V41.4267C11.2624 41.9344 11.674 42.346 12.1817 42.346H13.7797V46.1486C13.7797 46.6563 14.1913 47.0679 14.699 47.0679C15.2066 47.0679 15.6183 46.6563 15.6183 46.1486V42.3461H18.1965V46.1486C18.1965 46.6563 18.6082 47.0679 19.1158 47.0679C19.6234 47.0679 20.0351 46.6563 20.0351 46.1486V42.3461H22.6134V46.1486C22.6134 46.6563 23.025 47.0679 23.5327 47.0679C24.0403 47.0679 24.4519 46.6563 24.4519 46.1486V42.3461H27.0303V46.1486C27.0303 46.6563 27.442 47.0679 27.9496 47.0679C28.4572 47.0679 28.8689 46.6563 28.8689 46.1486V42.3461H31.4471V46.1486C31.4471 46.6563 31.8588 47.0679 32.3664 47.0679C32.8741 47.0679 33.2857 46.6563 33.2857 46.1486V42.3461H34.8837C35.3914 42.3461 35.803 41.9345 35.803 41.4268V37.9822L37.9824 35.8028H41.4269C41.9345 35.8028 42.3462 35.3913 42.3462 34.8835V33.2856H46.1486C46.6562 33.2856 47.0679 32.8741 47.0679 32.3663C47.0679 31.8586 46.6562 31.447 46.1486 31.447H42.3461V28.8688H46.1486C46.6562 28.8688 47.0679 28.4572 47.0679 27.9495C47.0679 27.4418 46.6562 27.0302 46.1486 27.0302H42.3461V24.4519H46.1486C46.6562 24.4519 47.0679 24.0404 47.0679 23.5327C47.0679 23.0249 46.6562 22.6134 46.1486 22.6134H42.3461V20.0351H46.1486V20.035ZM33.9643 6.5577V8.54447H13.101V6.5577H33.9643ZM6.5577 13.101H8.54447V33.9643H6.5577V13.101ZM10.3831 12.5624L12.5624 10.3831H34.5028L36.6821 12.5624V34.5028L34.5028 36.6821H12.5624L10.3831 34.5028V12.5624ZM13.101 40.5075V38.5207H33.9643V40.5075H13.101ZM40.5075 33.9643H38.5208V13.101H40.5075V33.9643Z" fill="white"/>
<path d="M23.5326 15.0501H23.5379C24.0456 15.0501 24.4547 14.6386 24.4547 14.1308C24.4547 13.6231 24.0403 13.2115 23.5327 13.2115C23.0251 13.2115 22.6134 13.6231 22.6134 14.1308C22.6134 14.6386 23.025 15.0501 23.5326 15.0501Z" fill="white"/>
</svg>
