<svg width="49" height="49" viewBox="0 0 49 49" fill="none" xmlns="http://www.w3.org/2000/svg">
<path d="M40.3906 39.2916C39.638 39.6859 38.8124 39.9302 37.9369 40.0178C37.7489 40.0366 37.5768 40.1318 37.4608 40.2811C37.3449 40.4304 37.2955 40.6207 37.3239 40.8076C37.3636 41.068 37.382 41.2827 37.382 41.4831C37.382 44.3537 34.6549 46.6889 31.3028 46.6889C28.8609 46.6889 26.6639 45.4438 25.7057 43.5165C25.5967 43.2974 25.4284 43.1203 25.2235 42.9984V34.2865C25.2759 34.2847 25.3282 34.2829 25.3817 34.281C26.729 34.2332 28.4049 34.1731 29.3384 35.0739C29.819 35.5376 30.099 36.2612 30.1753 37.2275C29.3833 37.518 28.8166 38.279 28.8166 39.1697C28.8166 40.31 29.7454 41.2379 30.8869 41.2379C32.0284 41.2379 32.9571 40.31 32.9571 39.1697C32.9571 38.2636 32.3706 37.4923 31.5572 37.2134C31.4659 35.8542 31.0429 34.8023 30.2961 34.0815C28.9409 32.7739 26.8554 32.8486 25.3326 32.9029C25.2957 32.9042 25.2599 32.9055 25.2236 32.9068V28.5723C32.2567 28.5866 35.8067 28.8748 36.1141 32.6643C35.3222 32.9549 34.7556 33.7158 34.7556 34.6065C34.7556 35.7468 35.6844 36.6747 36.8259 36.6747C37.9674 36.6747 38.8961 35.7468 38.8961 34.6065C38.8961 33.6999 38.3091 32.9285 37.495 32.6498C37.3251 30.2058 36.0467 28.6459 33.5998 27.8916C31.4773 27.2372 28.5793 27.1956 25.2236 27.193V22.8851C28.5793 22.8824 31.4773 22.8409 33.5998 22.1865C36.0467 21.4321 37.3251 19.8723 37.495 17.4282C38.3091 17.1496 38.8961 16.378 38.8961 15.4715C38.8961 14.3311 37.9674 13.4034 36.8259 13.4034C35.6844 13.4034 34.7556 14.3311 34.7556 15.4715C34.7556 16.3622 35.3222 17.1232 36.1141 17.4138C35.8067 21.2032 32.2567 21.4915 25.2236 21.5058V17.3082C25.2599 17.3095 25.2956 17.3107 25.3326 17.312C25.6553 17.3235 26.0031 17.336 26.364 17.336C27.7064 17.336 29.228 17.1639 30.2961 16.1334C31.043 15.4128 31.4659 14.3607 31.5572 13.0017C32.3706 12.7227 32.9571 11.9514 32.9571 11.0453C32.9571 9.90493 32.0284 8.97717 30.8869 8.97717C29.7454 8.97717 28.8166 9.90493 28.8166 11.0453C28.8166 11.936 29.3832 12.6971 30.1753 12.9876C30.099 13.9539 29.819 14.6774 29.3384 15.141C28.4049 16.0419 26.7285 15.9816 25.3818 15.9339C25.3283 15.932 25.276 15.9302 25.2235 15.9284V12.9413C25.2235 12.5604 24.9149 12.2518 24.534 12.2518C24.1531 12.2518 23.8445 12.5604 23.8445 12.9413V42.9986C23.6396 43.1205 23.4712 43.2977 23.3622 43.5169C22.4041 45.4437 20.2072 46.6889 17.7652 46.6889C14.4131 46.6889 11.686 44.3537 11.686 41.4831C11.686 41.2827 11.7044 41.068 11.7441 40.8076C11.7457 40.7962 11.9132 39.6535 12.699 38.8954C12.9731 38.6311 12.9809 38.1947 12.7165 37.9206C12.4521 37.6467 12.0155 37.6386 11.7417 37.9031C11.0647 38.5562 10.7142 39.3664 10.5394 39.9307C8.93422 39.6264 7.50601 38.761 6.64242 37.5443C6.42207 37.2341 5.99156 37.1609 5.68102 37.3813C5.37058 37.6017 5.29749 38.0321 5.51794 38.3427C6.60822 39.8785 8.32951 40.931 10.3111 41.2937C10.3086 41.3577 10.3073 41.4206 10.3073 41.4832C10.3073 45.1141 13.6531 48.0681 17.7654 48.0681C20.6752 48.0681 23.3153 46.5754 24.5342 44.254C25.753 46.5753 28.393 48.0679 31.3028 48.0679C35.4151 48.0679 38.7609 45.1139 38.7609 41.4831C38.7609 41.4205 38.7596 41.3576 38.7571 41.2935C39.558 41.1466 40.3202 40.8852 41.0306 40.5131C41.3679 40.3364 41.498 39.9197 41.3213 39.5824C41.1446 39.245 40.7281 39.1149 40.3906 39.2916ZM30.8868 38.4806C31.2679 38.4806 31.5781 38.7897 31.5781 39.1697C31.5781 39.5499 31.268 39.859 30.8868 39.859C30.5056 39.859 30.1955 39.5499 30.1955 39.1697C30.1956 38.7897 30.5057 38.4806 30.8868 38.4806ZM36.8258 33.9173C37.2069 33.9173 37.5171 34.2264 37.5171 34.6065C37.5171 34.9866 37.207 35.2958 36.8258 35.2958C36.4446 35.2958 36.1345 34.9866 36.1345 34.6065C36.1345 34.2265 36.4447 33.9173 36.8258 33.9173ZM36.8258 14.7823C37.2069 14.7823 37.5171 15.0915 37.5171 15.4715C37.5171 15.8517 37.207 16.1608 36.8258 16.1608C36.4446 16.1608 36.1345 15.8517 36.1345 15.4715C36.1345 15.0915 36.4447 14.7823 36.8258 14.7823ZM30.8868 10.3559C31.2679 10.3559 31.5781 10.6651 31.5781 11.0451C31.5781 11.4253 31.268 11.7344 30.8868 11.7344C30.5056 11.7344 30.1955 11.4253 30.1955 11.0451C30.1956 10.6652 30.5057 10.3559 30.8868 10.3559Z" fill="white" stroke="white" stroke-width="0.5"/>
<path d="M5.76332 34.8509C5.76332 33.6039 6.28741 32.3615 7.20129 31.4425C7.37761 31.2651 7.44416 31.0062 7.37503 30.7658C7.3059 30.5255 7.11202 30.3414 6.86832 30.2848C4.22507 29.6708 2.37894 27.609 2.37894 25.2709C2.37894 23.8166 3.05637 22.4345 4.28639 21.3793C4.43366 21.253 4.52081 21.0706 4.5266 20.8768C4.53248 20.683 4.45646 20.4956 4.31727 20.3608C3.613 19.6785 3.22515 18.8052 3.22515 17.9017C3.22515 15.8763 5.0915 14.2398 7.47395 14.1764C7.4847 14.1765 8.53628 14.1939 9.27531 14.8475C9.40649 14.9635 9.56948 15.0205 9.73183 15.0205C9.92249 15.0205 10.1123 14.9419 10.2486 14.7878C10.5008 14.5026 10.4741 14.0668 10.1889 13.8146C9.39445 13.1119 8.40869 12.895 7.86382 12.8279C7.59704 12.3384 7.45556 11.8058 7.45556 11.2696C7.45556 10.1304 8.05807 9.06724 9.10855 8.35276C9.4234 8.13866 9.50504 7.70981 9.29084 7.39495C9.07674 7.08009 8.6478 6.99836 8.33303 7.21265C6.89893 8.18793 6.07653 9.66671 6.07653 11.2697C6.07653 11.829 6.18124 12.3833 6.38366 12.9103C3.76892 13.4051 1.84621 15.4435 1.84621 17.9019C1.84621 18.9518 2.20722 19.9646 2.87472 20.8157C1.66079 22.0674 1 23.6266 1 25.2709C1 27.9273 2.81175 30.2911 5.5187 31.3135C4.78933 32.3573 4.38438 33.6004 4.38438 34.8509C4.38438 35.2317 4.69299 35.5403 5.07385 35.5403C5.45472 35.5403 5.76332 35.2316 5.76332 34.8509Z" fill="white" stroke="white" stroke-width="0.5"/>
<path d="M48.0679 25.2708C48.0679 23.6263 47.4072 22.0672 46.1931 20.8155C46.8606 19.9642 47.2216 18.9514 47.2216 17.9017C47.2216 15.4432 45.2988 13.4049 42.6841 12.9101C42.8866 12.3831 42.9913 11.8286 42.9913 11.2694C42.9913 8.45125 40.4047 6.15844 37.2253 6.15844C37.1619 6.15844 37.0938 6.15991 37.0226 6.16248C36.8463 4.86214 36.1675 3.64849 35.0723 2.6961C33.8388 1.62337 32.2329 1.02114 30.5504 1.00064C30.5198 1.00018 30.4892 1 30.4586 1C27.9518 1 25.6484 2.26228 24.534 4.24309C23.4196 2.26219 21.1164 1 18.6094 1C18.579 1 18.5481 1.00018 18.5176 1.00064C16.835 1.02124 15.2291 1.62337 13.9956 2.6961C12.9006 3.6483 12.2219 4.86186 12.0454 6.16248C11.9742 6.15991 11.9061 6.15844 11.8427 6.15844C11.4618 6.15844 11.1532 6.46704 11.1532 6.84791C11.1532 7.22877 11.4618 7.53738 11.8427 7.53738C12.0534 7.53738 12.3468 7.5588 12.6086 7.59327C12.816 7.62057 13.0226 7.55301 13.1733 7.40987C13.3243 7.26665 13.4024 7.06302 13.3861 6.85563L13.3819 6.80856C13.3808 6.79615 13.3794 6.78383 13.3789 6.77804C13.4208 4.4275 15.7818 2.41314 18.5345 2.37931C20.6139 2.35817 22.5146 3.38327 23.3777 5.00206C23.4866 5.20642 23.6493 5.37244 23.8446 5.48882V9.75803C23.8446 10.1389 24.1532 10.4475 24.5341 10.4475C24.9149 10.4475 25.2236 10.1389 25.2236 9.75803V5.48891C25.4189 5.37262 25.5815 5.20651 25.6905 5.00215C26.543 3.40304 28.4085 2.37894 30.4578 2.37894C30.483 2.37894 30.5083 2.37913 30.5335 2.3794C33.2861 2.41314 35.6472 4.4275 35.6891 6.77142C35.678 6.76352 35.6695 8.15358 34.9283 9.03951C34.6839 9.33157 34.7226 9.7663 35.0146 10.0106C35.1436 10.1187 35.3005 10.1713 35.4567 10.1713C35.6538 10.1713 35.8494 10.0873 35.9858 9.92424C36.6279 9.1569 36.8888 8.20249 36.9951 7.54409C37.0779 7.53977 37.1564 7.53729 37.2254 7.53729C39.6443 7.53729 41.6125 9.21151 41.6125 11.2693C41.6125 11.908 41.4142 12.5424 41.0391 13.104C40.8995 13.3128 40.8847 13.5809 41.0001 13.8038C41.1155 14.0269 41.343 14.1695 41.5941 14.1762C43.9765 14.2396 45.8429 15.876 45.8429 17.9015C45.8429 18.805 45.455 19.6782 44.7507 20.3605C44.7438 20.3677 44.0063 21.1017 43.0445 21.1781C42.665 21.2083 42.3817 21.5404 42.4119 21.9201C42.4407 22.2811 42.7425 22.5549 43.0985 22.5549C43.1168 22.5549 43.1353 22.5541 43.1539 22.5528C44.0274 22.4834 44.7453 22.0925 45.1988 21.7718C46.1635 22.7665 46.689 23.9904 46.689 25.2708C46.689 27.6091 44.8429 29.6708 42.1996 30.2847C41.956 30.3412 41.762 30.5253 41.6929 30.7656C41.6238 31.006 41.6902 31.265 41.8666 31.4423C42.7804 32.3615 43.3046 33.6038 43.3046 34.8507C43.3046 35.723 43.0469 36.5859 42.5596 37.3461C42.3541 37.6666 42.4473 38.0932 42.7679 38.2986C42.8831 38.3725 43.012 38.4078 43.1394 38.4078C43.3665 38.4078 43.5889 38.2958 43.7204 38.0904C44.3505 37.1078 44.6836 35.9874 44.6836 34.8508C44.6836 33.6005 44.2786 32.3573 43.5492 31.3135C46.2562 30.2911 48.0679 27.9273 48.0679 25.2708Z" fill="white" stroke="white" stroke-width="0.5"/>
<path d="M8.7876 24.5878C8.76627 24.968 9.05723 25.2936 9.43727 25.3149C9.4505 25.3156 9.46356 25.316 9.47661 25.316C9.83964 25.316 10.1437 25.0322 10.1643 24.6652C10.1663 24.6306 10.3989 21.1942 13.8766 20.3483C14.2466 20.2583 14.4736 19.8854 14.3836 19.5154C14.2936 19.1454 13.921 18.9182 13.5507 19.0084C11.2201 19.5754 10.0467 21.0625 9.47266 22.2102C8.85839 23.4386 8.79017 24.5415 8.7876 24.5878Z" fill="white" stroke="white" stroke-width="0.5"/>
<path d="M19.4644 8.64171C19.0873 8.60632 18.7491 8.88422 18.7133 9.26343C18.5091 11.4273 16.2683 12.2561 16.1701 12.2913C15.8121 12.4181 15.6239 12.8106 15.7496 13.1693C15.849 13.4533 16.1154 13.6309 16.4002 13.6309C16.4758 13.6309 16.5528 13.6183 16.6282 13.5919C16.7575 13.5466 19.7979 12.4471 20.086 9.39287C20.1218 9.01375 19.8435 8.67747 19.4644 8.64171Z" fill="white" stroke="white" stroke-width="0.5"/>
<path d="M18.9093 39.3657C19.005 39.4112 19.1059 39.4327 19.2051 39.4327C19.4628 39.4327 19.71 39.2875 19.8282 39.0393C19.9917 38.6955 19.8456 38.284 19.5018 38.1205C16.8484 36.858 17.0755 33.8566 17.0867 33.7266C17.1209 33.3484 16.8427 33.0134 16.4643 32.9779C16.0859 32.9438 15.749 33.221 15.7135 33.6002C15.6981 33.7662 15.3737 37.6834 18.9093 39.3657Z" fill="white" stroke="white" stroke-width="0.5"/>
<path d="M17.2755 26.5684C16.9316 26.7319 16.7855 27.1433 16.9491 27.4871C17.0671 27.7354 17.3144 27.8806 17.5721 27.8806C17.6714 27.8806 17.7722 27.859 17.8678 27.8135C20.1 26.7516 19.8958 24.2844 19.886 24.1799C19.8504 23.8007 19.5132 23.5235 19.1352 23.5577C18.7561 23.5932 18.4775 23.9293 18.5129 24.3084C18.5145 24.3244 18.647 25.9157 17.2755 26.5684Z" fill="white" stroke="white" stroke-width="0.5"/>
<path d="M33.666 25.1076C33.666 25.4883 33.9747 25.797 34.3556 25.797C34.7364 25.797 35.0451 25.4883 35.0451 25.1076C35.0451 24.7268 34.7364 24.4181 34.3556 24.4181C33.9747 24.4181 33.666 24.7268 33.666 25.1076Z" fill="white" stroke="white" stroke-width="0.5"/>
<path d="M39.0432 25.797C39.4241 25.797 39.7328 25.4883 39.7328 25.1076C39.7328 24.7268 39.4241 24.4181 39.0432 24.4181C38.6623 24.4181 38.3536 24.7268 38.3536 25.1076C38.3536 25.4883 38.6624 25.797 39.0432 25.797Z" fill="white" stroke="white" stroke-width="0.5"/>
<path d="M30.1975 44.0911C30.1975 44.4719 30.5062 44.7806 30.8871 44.7806C31.2679 44.7806 31.5766 44.4719 31.5766 44.0911C31.5766 43.7103 31.2679 43.4016 30.8871 43.4016C30.5062 43.4016 30.1975 43.7103 30.1975 44.0911Z" fill="white" stroke="white" stroke-width="0.5"/>
<path d="M31.5765 6.12404C31.5765 5.74327 31.2678 5.43457 30.887 5.43457C30.5061 5.43457 30.1974 5.74327 30.1974 6.12404C30.1974 6.50481 30.5061 6.81351 30.887 6.81351C31.2678 6.81351 31.5765 6.50481 31.5765 6.12404Z" fill="white" stroke="white" stroke-width="0.5"/>
</svg>
